#!OML:ASF I:\Actors\actors\Patient Classification 2\Patient 1\Session 1\actor1.ASF
:FULLY-SPECIFIED
:DEGREES
512
root -0.474685 18.8491 5.19359 26.0609 3.57058 -1.29325
lowerback 27.7075 0.244287 2.2783
upperback 3.16427 1.04016 0.334119
thorax -11.8158 0.375631 -1.31971
lowerneck -8.7379 9.32425 7.66738
upperneck 19.1425 13.3345 -9.10074
head 8.52641 6.03832 -2.87017
rclavicle -1.64991e-014 -3.77691e-015
rhumerus 3.63234 28.3831 -70.4136
rradius 44.1687
rwrist 10.5711
rhand -26.8145 -35.0114
rfingers 7.12502
rthumb -0.24093 -64.991
lclavicle -1.64991e-014 -3.77691e-015
lhumerus 10.168 -19.6847 77.8055
lradius 39.2507
lwrist -18.4609
lhand -21.9935 -45.7774
lfingers 7.12502
lthumb 4.41506 -15.8435
rfemur -26.1956 -0.908137 14.5839
rtibia 8.84664
rfoot -19.5796 -17.3888
rtoes -3.74065
lfemur -40.5172 -1.71229 -11.3381
ltibia 29.2058
lfoot -15.2526 8.02966
ltoes -55.7609
513
root -0.481324 18.8468 5.18793 26.109 3.52896 -1.32565
lowerback 27.7059 0.441961 1.95938
upperback 3.13972 1.20214 0.357953
thorax -11.8449 0.464499 -1.16813
lowerneck -8.35872 11.8945 10.078
upperneck 20.8879 16.0592 -6.56621
head 9.30454 7.66875 -2.01794
rclavicle 2.78299e-015 -1.53064e-014
rhumerus 3.16746 28.5845 -70.1742
rradius 44.6625
rwrist 10.3605
rhand -26.7064 -34.817
rfingers 7.12502
rthumb -0.136564 -64.7967
lclavicle 2.78299e-015 -1.53064e-014
lhumerus 10.5025 -19.5997 78.2403
lradius 38.8506
lwrist -19.0283
lhand -21.8625 -45.8139
lfingers 7.12502
lthumb 4.54159 -15.8826
rfemur -26.3334 -0.843939 14.5995
rtibia 8.9493
rfoot -19.684 -17.3253
rtoes -3.50262
lfemur -40.5909 -1.76347 -11.2419
ltibia 29.2293
lfoot -15.2988 8.14134
ltoes -55.7688
514
root -0.488213 18.8456 5.18235 26.1471 3.56228 -1.32611
lowerback 27.7313 0.70189 1.64367
upperback 3.12579 1.45145 0.428117
thorax -11.8765 0.594391 -0.998309
lowerneck -8.84181 12.695 10.5919
upperneck 22.1088 16.2962 -3.22016
head 9.59506 8.09575 -0.895044
rclavicle -2.00773e-014 8.15017e-015
rhumerus 2.6529 28.5909 -69.7949
rradius 45.0654
rwrist 10.1718
rhand -26.5924 -34.9075
rfingers 7.12502
rthumb -0.0264289 -64.8872
lclavicle -2.00773e-014 8.15017e-015
lhumerus 10.976 -19.6353 78.8907
lradius 38.3893
lwrist -19.5481
lhand -21.7523 -45.9168
lfingers 7.12502
lthumb 4.64796 -15.9878
rfemur -26.4276 -0.858251 14.6217
rtibia 9.02497
rfoot -19.744 -17.2805
rtoes -3.30618
lfemur -40.6637 -1.83932 -11.1716
ltibia 29.2324
lfoot -15.2965 8.20312
ltoes -55.7631
515
root -0.497546 18.8463 5.17628 26.1292 3.74088 -1.28574
lowerback 27.8507 0.948004 1.26083
upperback 3.11559 1.68052 0.617241
thorax -11.9627 0.721402 -0.64908
lowerneck -8.68455 11.7677 10.1607
upperneck 21.5131 14.6657 -1.42612
head 9.05797 7.48772 -0.506454
rclavicle -2.38542e-014 9.93923e-015
rhumerus 2.19565 28.6495 -69.2451
rradius 45.3301
rwrist 10.0024
rhand -26.4349 -35.1008
rfingers 7.12502
rthumb 0.125692 -65.0805
lclavicle -2.38542e-014 9.93923e-015
lhumerus 11.4124 -19.8049 79.582
lradius 38.0765
lwrist -19.7242
lhand -21.6693 -45.6904
lfingers 7.12502
lthumb 4.72812 -15.7631
rfemur -26.419 -1.00465 14.6898
rtibia 9.08027
rfoot -19.7658 -17.2677
rtoes -3.40231
lfemur -40.6989 -1.94619 -11.1284
ltibia 29.2119
lfoot -15.2037 8.16695
ltoes -55.7521
516
root -0.506524 18.8473 5.17095 26.0931 3.96982 -1.28608
lowerback 27.958 1.16225 0.816883
upperback 3.07007 1.86338 0.904102
thorax -12.0942 0.833485 -0.136723
lowerneck -9.33683 9.66896 8.16023
upperneck 21.2775 11.5803 0.822055
head 8.62527 6.11459 0.154883
rclavicle 1.47101e-014 -2.38542e-015
rhumerus 1.76236 28.8658 -68.7024
rradius 45.382
rwrist 9.83098
rhand -26.3641 -35.0413
rfingers 7.12502
rthumb 0.194108 -65.021
lclavicle 1.47101e-014 -2.38542e-015
lhumerus 11.5355 -20.1353 80.1644
lradius 38.1864
lwrist -19.52
lhand -21.6641 -45.3163
lfingers 7.12502
lthumb 4.73313 -15.3892
rfemur -26.3918 -1.17436 14.8211
rtibia 9.14843
rfoot -19.8345 -17.2351
rtoes -3.44847
lfemur -40.711 -2.12903 -11.0044
ltibia 29.1716
lfoot -15.1262 8.23214
ltoes -55.8
517
root -0.511377 18.8471 5.16568 26.083 4.19042 -1.26139
lowerback 28.0433 1.33783 0.460721
upperback 3.01415 2.00501 1.06095
thorax -12.2223 0.919449 0.192477
lowerneck -9.91661 6.40281 5.47195
upperneck 20.6687 7.16344 2.73741
head 8.15539 4.03104 0.714162
rclavicle -9.54166e-015 -5.96354e-015
rhumerus 1.34966 28.798 -68.5398
rradius 45.1306
rwrist 9.81062
rhand -26.4496 -34.9688
rfingers 7.12502
rthumb 0.111509 -64.9485
lclavicle -9.54166e-015 -5.96354e-015
lhumerus 11.5387 -20.988 80.2655
lradius 38.7279
lwrist -18.7912
lhand -21.7909 -45.2798
lfingers 7.12502
lthumb 4.6107 -15.35
rfemur -26.3878 -1.36214 14.9028
rtibia 9.20369
rfoot -19.8956 -17.1749
rtoes -3.3015
lfemur -40.7431 -2.41917 -10.8702
ltibia 29.1232
lfoot -15.1497 8.35039
ltoes -55.7299
518
root -0.511019 18.8469 5.16224 26.0797 4.42162 -1.18439
lowerback 28.1078 1.43841 0.29768
upperback 3.06079 2.08446 1.05664
thorax -12.2079 0.963653 0.25098
lowerneck -10.4127 2.56386 2.41855
upperneck 20.1743 2.14177 4.38205
head 7.93625 1.60354 1.25367
rclavicle 6.36111e-015 -3.97569e-016
rhumerus 1.21857 28.279 -68.6909
rradius 44.597
rwrist 10.0958
rhand -26.4176 -35.0509
rfingers 7.12502
rthumb 0.142411 -65.0306
lclavicle 6.36111e-015 -3.97569e-016
lhumerus 11.6407 -22.324 79.7884
lradius 39.6799
lwrist -17.5021
lhand -21.9559 -45.3174
lfingers 7.12502
lthumb 4.45138 -15.3842
rfemur -26.3638 -1.59628 14.9154
rtibia 9.23912
rfoot -19.8814 -17.1562
rtoes -3.45945
lfemur -40.781 -2.58685 -10.8788
ltibia 29.0813
lfoot -15.1564 8.28433
ltoes -55.6515
519
root -0.508536 18.8472 5.16052 26.0802 4.62418 -1.15818
lowerback 28.0699 1.4485 0.299079
upperback 3.16906 2.09746 1.06623
thorax -12.0626 0.970835 0.258127
lowerneck -10.2912 -1.37497 -1.14628
upperneck 19.749 -2.85936 5.88584
head 7.89293 -0.876191 1.85772
rclavicle -4.77083e-015 3.97569e-016
rhumerus 1.36198 27.6842 -68.934
rradius 43.8922
rwrist 10.6144
rhand -26.2795 -34.9906
rfingers 7.12502
rthumb 0.275818 -64.9701
lclavicle -4.77083e-015 3.97569e-016
lhumerus 11.5556 -23.6559 79.1465
lradius 41.0237
lwrist -15.8338
lhand -22.1027 -45.1799
lfingers 7.12502
lthumb 4.30964 -15.2438
rfemur -26.3548 -1.78577 14.9562
rtibia 9.28836
rfoot -19.8716 -17.1615
rtoes -3.70507
lfemur -40.8234 -2.53776 -10.9435
ltibia 29.0537
lfoot -15.0722 8.08599
ltoes -55.7289
520
root -0.505905 18.8472 5.15668 26.095 4.77163 -1.17631
lowerback 28.0271 1.33461 0.446731
upperback 3.23527 1.99665 1.08013
thorax -11.958 0.91925 0.22789
lowerneck -9.4424 -5.02633 -4.26466
upperneck 19.2112 -7.27641 5.91959
head 7.85318 -3.19974 1.95349
rclavicle 3.18055e-015 5.56597e-015
rhumerus 1.66016 27.1829 -69.4005
rradius 43.0361
rwrist 11.2296
rhand -26.1335 -34.895
rfingers 7.12502
rthumb 0.416846 -64.8743
lclavicle 3.18055e-015 5.56597e-015
lhumerus 11.1225 -24.7846 78.4439
lradius 42.5661
lwrist -13.9963
lhand -22.4312 -45.0495
lfingers 7.12502
lthumb 3.99241 -15.1072
rfemur -26.3901 -1.90343 15.0224
rtibia 9.35098
rfoot -19.8815 -17.1687
rtoes -3.82063
lfemur -40.8739 -2.5247 -10.9335
ltibia 29.0344
lfoot -15.0271 7.94071
ltoes -55.7513
521
root -0.502645 18.8468 5.15049 26.1315 4.82327 -1.18706
lowerback 28.0345 1.05995 0.630262
upperback 3.26761 1.6918 1.02051
thorax -11.9149 0.770849 0.167729
lowerneck -9.14445 -7.77832 -6.66394
upperneck 19.6222 -10.3354 4.38985
head 8.16342 -4.94194 1.51023
rclavicle -1.19271e-015 6.95746e-015
rhumerus 2.20739 26.8895 -70.2495
rradius 42.065
rwrist 11.8569
rhand -25.9557 -34.8662
rfingers 7.12502
rthumb 0.588526 -64.8452
lclavicle -1.19271e-015 6.95746e-015
lhumerus 10.3951 -25.5701 77.4624
lradius 44.1654
lwrist -12.1712
lhand -22.7633 -44.9037
lfingers 7.12502
lthumb 3.67167 -14.9556
rfemur -26.484 -1.93909 15.0435
rtibia 9.43258
rfoot -19.9205 -17.148
rtoes -3.62904
lfemur -40.929 -2.50153 -10.933
ltibia 29.0177
lfoot -14.9998 7.83824
ltoes -55.7122
